<svg width="50" height="50" viewBox="0 0 50 50" fill="none" xmlns="http://www.w3.org/2000/svg">
<path d="M0 10C0 4.47715 4.47715 0 10 0H40C45.5228 0 50 4.47715 50 10V40C50 45.5228 45.5228 50 40 50H10C4.47715 50 0 45.5228 0 40V10Z" fill="#161616"/>
<path d="M13.207 8.33337C14.9549 8.33337 16.3719 9.75038 16.3719 11.4983V26.7514C16.3719 28.3508 16.8202 29.9183 17.6659 31.2759L18.952 33.3403H15.1748C13.4268 33.3403 12.0098 31.9233 12.0098 30.1754V8.33337H13.207Z" fill="url(#paint0_linear_206_2)"/>
<path d="M27.6762 39.4322C26.3726 39.4322 25.1316 39.3445 23.9533 39.169C22.2413 38.9457 21.1706 37.3943 21.1706 35.6678V34.7693C21.7472 34.9698 22.6121 35.1328 23.7653 35.2581C24.9436 35.4086 26.1093 35.4838 27.2625 35.4838C28.867 35.4838 29.9701 35.1955 30.5717 34.6189C31.1985 34.0423 31.5244 33.0144 31.5494 31.5353V30.4824C30.6219 30.9838 29.6567 31.3724 28.6539 31.6481C27.6511 31.9239 26.6609 32.0618 25.6832 32.0618C23.2514 32.0618 21.5216 31.3849 20.4937 30.0311C19.4659 28.6774 18.952 26.4086 18.952 23.2247C18.952 20.0409 19.6414 17.7721 21.0202 16.4183C22.4241 15.0646 24.7806 14.3877 28.0898 14.3877C29.3684 14.3877 30.7723 14.4629 32.3015 14.6133C34.4135 14.8177 35.9116 16.6248 35.9116 18.7467V30.2192C35.9116 33.6286 35.2973 36.0102 34.0689 37.364C32.8405 38.7428 30.7096 39.4322 27.6762 39.4322ZM28.0898 18.2985C26.0592 18.2985 24.7556 18.6119 24.179 19.2387C23.6024 19.8403 23.3141 21.169 23.3141 23.2247C23.3141 25.13 23.5522 26.4086 24.0286 27.0604C24.5299 27.6871 25.5703 28.0005 27.1497 28.0005C27.8266 28.0005 28.5411 27.9253 29.2932 27.7749C30.0703 27.5994 30.8224 27.3738 31.5494 27.098V20.3449C31.5494 19.354 30.8448 18.4937 29.8572 18.4114C29.2806 18.3362 28.6915 18.2985 28.0898 18.2985Z" fill="url(#paint1_linear_206_2)"/>
<path d="M38.1501 30.957C38.1501 30.2449 38.7274 29.6676 39.4395 29.6676H40.3773C41.0894 29.6676 41.6667 30.2449 41.6667 30.957V31.8948C41.6667 32.6069 41.0894 33.1842 40.3773 33.1842H39.4395C38.7274 33.1842 38.1501 32.6069 38.1501 31.8948V30.957Z" fill="url(#paint2_linear_206_2)"/>
<defs>
<linearGradient id="paint0_linear_206_2" x1="11.5996" y1="24.334" x2="38.3332" y2="25.5055" gradientUnits="userSpaceOnUse">
<stop stop-color="#24D6B6"/>
<stop offset="1" stop-color="#2757B6"/>
</linearGradient>
<linearGradient id="paint1_linear_206_2" x1="11.5996" y1="24.334" x2="38.3332" y2="25.5055" gradientUnits="userSpaceOnUse">
<stop stop-color="#24D6B6"/>
<stop offset="1" stop-color="#2757B6"/>
</linearGradient>
<linearGradient id="paint2_linear_206_2" x1="11.5996" y1="24.334" x2="38.3332" y2="25.5055" gradientUnits="userSpaceOnUse">
<stop stop-color="#24D6B6"/>
<stop offset="1" stop-color="#2757B6"/>
</linearGradient>
</defs>
</svg>
