<svg width="534" height="266" viewBox="0 0 534 266" fill="none" xmlns="http://www.w3.org/2000/svg">
<path d="M277.38 212H272.577V173.735H276.915L277.225 176.911H277.38C279.858 175.465 282.027 174.458 283.886 173.89C285.797 173.27 287.708 172.96 289.618 172.96C291.787 172.96 293.646 173.322 295.196 174.044C296.796 174.716 298.062 175.723 298.991 177.065H299.146C301.47 175.671 303.742 174.638 305.963 173.967C308.235 173.296 310.558 172.96 312.934 172.96C316.6 172.96 319.363 173.915 321.222 175.826C323.133 177.685 324.088 180.448 324.088 184.114V212H319.286V184.657C319.286 182.126 318.614 180.267 317.272 179.079C315.929 177.892 313.838 177.298 310.997 177.298C309.345 177.298 307.615 177.556 305.808 178.072C304.052 178.589 302.244 179.363 300.385 180.396C300.54 181.016 300.644 181.636 300.695 182.255C300.747 182.875 300.773 183.495 300.773 184.114V212H295.97V184.657C295.97 182.126 295.299 180.267 293.956 179.079C292.614 177.892 290.496 177.298 287.604 177.298C286.159 177.298 284.635 177.556 283.034 178.072C281.433 178.589 279.549 179.467 277.38 180.706V212ZM335.854 220.211C337.765 220.211 339.237 219.746 340.27 218.817C341.354 217.887 342.619 215.46 344.065 211.535L328.108 173.735H333.453L346.544 206.655L358.937 173.735H364.127L347.861 215.098C346.466 218.713 344.917 221.192 343.213 222.535C341.509 223.877 339.314 224.549 336.629 224.549C335.803 224.549 334.951 224.497 334.073 224.394C333.246 224.342 332.343 224.213 331.362 224.006V219.746C332.085 219.901 332.808 220.004 333.53 220.056C334.253 220.159 335.028 220.211 335.854 220.211ZM399.872 163.432V168.003H382.908V212H377.95V168.003H360.987V163.432H399.872ZM408.376 212.542C404.452 212.542 401.56 211.613 399.701 209.754C397.894 207.895 396.99 204.951 396.99 200.923C396.99 196.895 398.1 194.029 400.321 192.325C402.541 190.621 406.311 189.769 411.63 189.769C413.54 189.769 415.4 189.846 417.207 190.001C419.014 190.156 420.77 190.389 422.474 190.698V186.67C422.474 183.262 421.7 180.861 420.15 179.467C418.601 178.021 416.071 177.298 412.559 177.298C410.184 177.298 408.092 177.401 406.285 177.608C404.529 177.814 402.722 178.15 400.863 178.615V174.354C403.032 173.838 405.097 173.476 407.06 173.27C409.074 173.063 411.397 172.96 414.031 172.96C418.575 172.96 421.906 174.044 424.023 176.213C426.192 178.331 427.277 181.687 427.277 186.283V212H422.939L422.707 208.204H422.552C420.951 209.495 418.859 210.554 416.277 211.38C413.695 212.155 411.062 212.542 408.376 212.542ZM412.172 193.719C408.247 193.719 405.485 194.236 403.884 195.269C402.335 196.301 401.56 198.083 401.56 200.613C401.56 203.299 402.205 205.235 403.496 206.423C404.787 207.611 406.879 208.204 409.771 208.204C412.095 208.204 414.418 207.869 416.742 207.197C419.118 206.475 421.028 205.597 422.474 204.564V194.649C420.77 194.339 419.066 194.107 417.362 193.952C415.709 193.797 413.979 193.719 412.172 193.719ZM449.207 177.298C445.644 177.298 443.139 177.788 441.693 178.77C440.248 179.699 439.525 181.558 439.525 184.347C439.525 185.844 439.86 186.98 440.532 187.755C441.203 188.478 442.313 188.968 443.862 189.227L453.855 190.776C457.005 191.241 459.199 192.196 460.439 193.642C461.678 195.036 462.298 197.283 462.298 200.381C462.298 204.667 461.265 207.766 459.199 209.676C457.134 211.587 453.726 212.542 448.975 212.542C446.031 212.542 443.268 212.361 440.686 212C438.104 211.69 436.039 211.277 434.49 210.761V206.19C435.987 206.759 437.975 207.223 440.454 207.585C442.984 207.946 445.592 208.127 448.278 208.127C451.686 208.127 454.061 207.585 455.404 206.5C456.798 205.364 457.495 203.428 457.495 200.691C457.495 198.832 457.108 197.515 456.333 196.74C455.559 195.914 454.087 195.32 451.918 194.959L442.003 193.41C439.525 193.048 437.691 192.144 436.504 190.698C435.316 189.253 434.722 187.161 434.722 184.424C434.722 180.396 435.858 177.479 438.13 175.671C440.454 173.864 444.069 172.96 448.975 172.96C451.04 172.96 452.874 173.012 454.474 173.115C456.127 173.218 457.857 173.425 459.664 173.735V178.072C458.218 177.814 456.592 177.633 454.784 177.53C453.028 177.375 451.169 177.298 449.207 177.298ZM474.101 194.804V212H469.299V160.489H474.101V190.544H479.369L494.009 173.735H499.896L483.242 192.403L500.67 212H494.474L479.524 194.804H474.101ZM517.593 177.298C514.03 177.298 511.525 177.788 510.079 178.77C508.633 179.699 507.91 181.558 507.91 184.347C507.91 185.844 508.246 186.98 508.917 187.755C509.589 188.478 510.699 188.968 512.248 189.227L522.241 190.776C525.391 191.241 527.585 192.196 528.825 193.642C530.064 195.036 530.684 197.283 530.684 200.381C530.684 204.667 529.651 207.766 527.585 209.676C525.52 211.587 522.112 212.542 517.361 212.542C514.417 212.542 511.654 212.361 509.072 212C506.49 211.69 504.425 211.277 502.876 210.761V206.19C504.373 206.759 506.361 207.223 508.84 207.585C511.37 207.946 513.978 208.127 516.663 208.127C520.072 208.127 522.447 207.585 523.79 206.5C525.184 205.364 525.881 203.428 525.881 200.691C525.881 198.832 525.494 197.515 524.719 196.74C523.945 195.914 522.473 195.32 520.304 194.959L510.389 193.41C507.91 193.048 506.077 192.144 504.89 190.698C503.702 189.253 503.108 187.161 503.108 184.424C503.108 180.396 504.244 177.479 506.516 175.671C508.84 173.864 512.455 172.96 517.361 172.96C519.426 172.96 521.259 173.012 522.86 173.115C524.513 173.218 526.243 173.425 528.05 173.735V178.072C526.604 177.814 524.978 177.633 523.17 177.53C521.414 177.375 519.555 177.298 517.593 177.298Z" fill="#2757B6"/>
<path d="M10.2128 0C25.1245 0 37.2128 12.0883 37.2128 27V157.122C37.2128 170.767 41.0371 184.139 48.2518 195.721L59.2227 213.332H27C12.0883 213.332 0 201.244 0 186.332V0H10.2128Z" fill="url(#paint0_linear_101_383)"/>
<path d="M133.648 265.302C122.527 265.302 111.941 264.553 101.889 263.056C87.284 261.151 78.1499 247.916 78.1499 233.188V225.522C83.0688 227.233 90.4472 228.623 100.285 229.693C110.337 230.976 120.282 231.618 130.119 231.618C143.807 231.618 153.217 229.158 158.35 224.239C163.697 219.32 166.477 210.552 166.691 197.934V188.951C158.778 193.229 150.544 196.543 141.989 198.896C133.434 201.249 124.987 202.425 116.646 202.425C95.9008 202.425 81.144 196.65 72.3755 185.102C63.607 173.553 59.2227 154.198 59.2227 127.037C59.2227 99.8757 65.104 80.5208 76.8667 68.972C88.8432 57.4232 108.947 51.6488 137.177 51.6488C148.084 51.6488 160.061 52.2904 173.107 53.5736C191.124 55.3172 203.903 70.7333 203.903 88.835V186.706C203.903 215.791 198.664 236.109 188.184 247.658C177.705 259.42 159.526 265.302 133.648 265.302ZM137.177 85.012C119.854 85.012 108.733 87.6853 103.814 93.032C98.895 98.1648 96.4355 109.5 96.4355 127.037C96.4355 143.291 98.4672 154.198 102.531 159.758C106.808 165.105 115.683 167.778 129.157 167.778C134.931 167.778 141.027 167.137 147.443 165.854C154.073 164.357 160.489 162.432 166.691 160.079V102.47C166.691 94.0156 160.68 86.6765 152.255 85.9744C147.336 85.3328 142.31 85.012 137.177 85.012Z" fill="url(#paint1_linear_101_383)"/>
<path d="M223 193C223 186.925 227.925 182 234 182H242C248.075 182 253 186.925 253 193V201C253 207.075 248.075 212 242 212H234C227.925 212 223 207.075 223 201V193Z" fill="url(#paint2_linear_101_383)"/>
<defs>
<linearGradient id="paint0_linear_101_383" x1="-3.5" y1="136.5" x2="224.562" y2="146.494" gradientUnits="userSpaceOnUse">
<stop stop-color="#24D6B6"/>
<stop offset="1" stop-color="#2757B6"/>
</linearGradient>
<linearGradient id="paint1_linear_101_383" x1="-3.5" y1="136.5" x2="224.562" y2="146.494" gradientUnits="userSpaceOnUse">
<stop stop-color="#24D6B6"/>
<stop offset="1" stop-color="#2757B6"/>
</linearGradient>
<linearGradient id="paint2_linear_101_383" x1="-3.5" y1="136.5" x2="224.562" y2="146.494" gradientUnits="userSpaceOnUse">
<stop stop-color="#24D6B6"/>
<stop offset="1" stop-color="#2757B6"/>
</linearGradient>
</defs>
</svg>
